<?xml version="1.0" encoding="UTF-8"?>
<svg width="60px" height="60px" viewBox="0 0 60 60" version="1.1" xmlns="http://www.w3.org/2000/svg" xmlns:xlink="http://www.w3.org/1999/xlink">
    <!-- Generator: Sketch 49 (51002) - http://www.bohemiancoding.com/sketch -->
    <title>Phun suong tat</title>
    <desc>Created with Sketch.</desc>
    <defs>
        <filter x="-22.7%" y="-12.9%" width="156.1%" height="168.9%" filterUnits="objectBoundingBox" id="filter-1">
            <feOffset dx="1" dy="7" in="SourceAlpha" result="shadowOffsetOuter1"></feOffset>
            <feGaussianBlur stdDeviation="4" in="shadowOffsetOuter1" result="shadowBlurOuter1"></feGaussianBlur>
            <feColorMatrix values="0 0 0 0 0.26049149   0 0 0 0 0.324856505   0 0 0 0 0.26049149  0 0 0 0.364102129 0" type="matrix" in="shadowBlurOuter1" result="shadowMatrixOuter1"></feColorMatrix>
            <feMerge>
                <feMergeNode in="shadowMatrixOuter1"></feMergeNode>
                <feMergeNode in="SourceGraphic"></feMergeNode>
            </feMerge>
        </filter>
        <polygon id="path-2" points="0 64.7111111 64 64.7111111 64 0.266666667 0 0.266666667"></polygon>
    </defs>
    <g id="phun_suong_off" transform="translate(3 2.088889)">
        <g id="Path_111" filter="url(#filter-1)" fill="none">
            <path d="M26,0A26,26,0,1,1,0,26,26,26,0,0,1,26,0Z" stroke="none"/>
            <path d="M 26 2 C 22.75914001464844 2 19.61627960205078 2.634281158447266 16.65872955322266 3.885219573974609 C 13.80107116699219 5.093910217285156 11.23419952392578 6.824668884277344 9.029441833496094 9.029441833496094 C 6.824668884277344 11.23419952392578 5.093910217285156 13.80107116699219 3.885219573974609 16.65872955322266 C 2.634281158447266 19.61627960205078 2 22.75914001464844 2 26 C 2 29.24085998535156 2.634281158447266 32.38372039794922 3.885219573974609 35.34127044677734 C 5.093910217285156 38.19892883300781 6.824668884277344 40.76580047607422 9.029441833496094 42.97055816650391 C 11.23419952392578 45.17533111572266 13.80107116699219 46.90608978271484 16.65872955322266 48.11478042602539 C 19.61627960205078 49.36571884155273 22.75914001464844 50 26 50 C 29.24085998535156 50 32.38372039794922 49.36571884155273 35.34127044677734 48.11478042602539 C 38.19892883300781 46.90608978271484 40.76580047607422 45.17533111572266 42.97055816650391 42.97055816650391 C 45.17533111572266 40.76580047607422 46.90608978271484 38.19892883300781 48.11478042602539 35.34127044677734 C 49.36571884155273 32.38372039794922 50 29.24085998535156 50 26 C 50 22.75914001464844 49.36571884155273 19.61627960205078 48.11478042602539 16.65872955322266 C 46.90608978271484 13.80107116699219 45.17533111572266 11.23419952392578 42.97055816650391 9.029441833496094 C 40.76580047607422 6.824668884277344 38.19892883300781 5.093910217285156 35.34127044677734 3.885219573974609 C 32.38372039794922 2.634281158447266 29.24085998535156 2 26 2 M 26 0 C 40.35939788818359 0 52 11.64059829711914 52 26 C 52 40.35939788818359 40.35939788818359 52 26 52 C 11.64059829711914 52 0 40.35939788818359 0 26 C 0 11.64059829711914 11.64059829711914 0 26 0 Z" stroke="none" fill="#a8a8a8"/>
        </g>
        <path id="Path_89" d="M897.106,1525.061a5.509,5.509,0,0,1-4.2-1.951,1.48,1.48,0,0,0-2.261,0,5.488,5.488,0,0,1-8.393,0,1.479,1.479,0,0,0-2.26,0,5.489,5.489,0,0,1-8.393,0,1.48,1.48,0,0,0-2.261,0,5.488,5.488,0,0,1-8.393,0,1.48,1.48,0,0,0-2.261,0,5.509,5.509,0,0,1-4.2,1.951,1.512,1.512,0,0,0,0,3.024,8.434,8.434,0,0,0,4.814-1.512c.175-.122.347-.249.513-.384.166.135.338.262.513.384a8.42,8.42,0,0,0,9.628,0c.175-.122.346-.249.513-.384.166.135.337.262.513.384a8.42,8.42,0,0,0,9.628,0c.175-.122.346-.249.513-.384.166.135.338.262.513.384a8.42,8.42,0,0,0,9.628,0c.175-.122.347-.249.513-.384.166.135.338.262.513.384a8.434,8.434,0,0,0,4.814,1.512,1.512,1.512,0,0,0,0-3.024Z" transform="translate(-849.943 -1490.943)" fill="#a8a8a8"/>
        <path id="Path_90" d="M905.084,1504.786c2.256,1.548-.961,7.509-.961,7.509a13.681,13.681,0,0,0-4.014-4.591c-2.338-1.422-9.5-3.63-9.5-3.63S900.819,1501.859,905.084,1504.786Z" transform="translate(-876.983 -1477.132)" fill="#a8a8a8"/>
        <path id="Path_91" d="M938.37,1499.839c-1.7,1.575-1.242,7.177-1.242,7.177a13.088,13.088,0,0,1,2.922-4.182,66.331,66.331,0,0,1,7.328-4.461S941.586,1496.862,938.37,1499.839Z" transform="translate(-910.275 -1473.349)" fill="#a8a8a8"/>
        <g id="Group_2768" transform="translate(14.664 1.725)">
            <path id="Path_110" d="M0,.311A8.5,8.5,0,0,1,2.721-.228,8.5,8.5,0,0,1,5.442.311V1.5A2.721,2.721,0,0,1,0,1.5Z" transform="translate(8.441 0.228)" fill="#a8a8a8"/>
            <circle id="Ellipse_14" cx="0.68" cy="0.68" r="0.68" transform="translate(8.226 4.333)" fill="#a8a8a8"/>
            <circle id="Ellipse_15" cx="0.68" cy="0.68" r="0.68" transform="translate(14.269 3.652)" fill="#a8a8a8"/>
            <circle id="Ellipse_16" cx="0.68" cy="0.68" r="0.68" transform="translate(15.748 6.469)" fill="#a8a8a8"/>
            <circle id="Ellipse_17" cx="0.68" cy="0.68" r="0.68" transform="translate(12.24 4.973)" fill="#a8a8a8"/>
            <circle id="Ellipse_18" cx="0.68" cy="0.68" r="0.68" transform="translate(4.314 7.603)" fill="#a8a8a8"/>
            <circle id="Ellipse_19" cx="0.68" cy="0.68" r="0.68" transform="translate(1.04 12.209)" fill="#a8a8a8"/>
            <circle id="Ellipse_20" cx="0.68" cy="0.68" r="0.68" transform="translate(8.703 10.515)" fill="#a8a8a8"/>
            <circle id="Ellipse_31" cx="0.68" cy="0.68" r="0.68" transform="translate(4.352 12.691)" fill="#a8a8a8"/>
            <circle id="Ellipse_30" cx="0.68" cy="0.68" r="0.68" transform="translate(0 17.042)" fill="#a8a8a8"/>
            <circle id="Ellipse_21" cx="0.68" cy="0.68" r="0.68" transform="translate(12.522 9.834)" fill="#a8a8a8"/>
            <circle id="Ellipse_22" cx="0.68" cy="0.68" r="0.68" transform="translate(17.921 10.515)" fill="#a8a8a8"/>
            <circle id="Ellipse_23" cx="0.68" cy="0.68" r="0.68" transform="translate(15.064 15.121)" fill="#a8a8a8"/>
            <circle id="Ellipse_32" cx="0.68" cy="0.68" r="0.68" transform="translate(15.064 19.473)" fill="#a8a8a8"/>
            <circle id="Ellipse_24" cx="0.68" cy="0.68" r="0.68" transform="translate(11.747 12.89)" fill="#a8a8a8"/>
            <circle id="Ellipse_25" cx="0.68" cy="0.68" r="0.68" transform="translate(12.093 17.329)" fill="#a8a8a8"/>
            <circle id="Ellipse_26" cx="0.68" cy="0.68" r="0.68" transform="translate(7.85 14.751)" fill="#a8a8a8"/>
            <circle id="Ellipse_27" cx="0.68" cy="0.68" r="0.68" transform="translate(8.023 19.74)" fill="#a8a8a8"/>
            <circle id="Ellipse_28" cx="0.68" cy="0.68" r="0.68" transform="translate(4.228 17.783)" fill="#a8a8a8"/>
            <circle id="Ellipse_29" cx="0.68" cy="0.68" r="0.68" transform="translate(20.009 19.883)" fill="#a8a8a8"/>
        </g>
    </g>
</svg>